<svg width="66" height="65" viewBox="0 0 66 65" fill="none" xmlns="http://www.w3.org/2000/svg">
<path d="M23.0371 30.2418H17.1865V44.2198H48.7797V30.2418H35.6159" stroke="black"/>
<path d="M12.2222 11.6044C5.35412 16.8945 1 24.8414 1 33.9829C1 50.5609 15.3194 64 32.9832 64C50.647 64 64.9664 50.5609 64.9664 33.9829C64.9664 24.8414 60.6122 16.8945 53.7442 11.6044" stroke="black"/>
<mask id="path-3-outside-1_37_131" maskUnits="userSpaceOnUse" x="12.0913" y="47.7033" width="42" height="6" fill="black">
<rect fill="white" x="12.0913" y="47.7033" width="42" height="6"/>
<path d="M16.0166 48.7033H32.7883H49.6574L52.3877 51.2528H36.2986L32.7883 52.3956L29.1804 51.2528H13.0913L16.0166 48.7033Z"/>
</mask>
<path d="M16.0166 48.7033V47.7033C15.7751 47.7033 15.5417 47.7907 15.3596 47.9494L16.0166 48.7033ZM49.6574 48.7033L50.3399 47.9724C50.1547 47.7995 49.9108 47.7033 49.6574 47.7033V48.7033ZM52.3877 51.2528V52.2528C52.7984 52.2528 53.1674 52.0016 53.318 51.6196C53.4687 51.2375 53.3704 50.8022 53.0702 50.5219L52.3877 51.2528ZM13.0913 51.2528L12.4343 50.4989C12.1199 50.7728 12.0086 51.2131 12.1549 51.6036C12.3011 51.994 12.6743 52.2528 13.0913 52.2528V51.2528ZM32.7883 52.3956L32.4863 53.3489L32.7925 53.4459L33.0978 53.3465L32.7883 52.3956ZM29.1804 51.2528L29.4824 50.2994L29.335 50.2528H29.1804V51.2528ZM36.2986 51.2528V50.2528H36.1399L35.989 50.3019L36.2986 51.2528ZM48.9749 49.4342L51.7052 51.9837L53.0702 50.5219L50.3399 47.9724L48.9749 49.4342ZM13.7483 52.0066L16.6736 49.4572L15.3596 47.9494L12.4343 50.4989L13.7483 52.0066ZM16.0166 49.7033H32.7883V47.7033H16.0166V49.7033ZM32.7883 49.7033H49.6574V47.7033H32.7883V49.7033ZM33.0902 51.4423L29.4824 50.2994L28.8784 52.2061L32.4863 53.3489L33.0902 51.4423ZM29.1804 50.2528H13.0913V52.2528H29.1804V50.2528ZM52.3877 50.2528H36.2986V52.2528H52.3877V50.2528ZM35.989 50.3019L32.4787 51.4447L33.0978 53.3465L36.6082 52.2036L35.989 50.3019Z" fill="black" mask="url(#path-3-outside-1_37_131)"/>
<path d="M18.1616 55.2967H47.9996" stroke="black" stroke-linejoin="round"/>
<path d="M22.2571 5.18677L22.5 30.6543" stroke="black"/>
<path d="M18.5518 4.9231V12.3077" stroke="black"/>
<path d="M25.7676 3.86816L25.7676 31.2967" stroke="black"/>
<path d="M29.4729 0.351685L29.4729 31.2967" stroke="black"/>
<path d="M32.9832 11.0769V34.2857" stroke="black"/>
<path d="M32.9832 3.16479V8.96699" stroke="black"/>
<path d="M36.4937 0.175842V30.6535" stroke="black"/>
<path d="M40.199 0.351685L40.004 25.6709" stroke="black"/>
<path d="M43.9043 1.93408L43.7093 27.2533" stroke="black"/>
<path d="M47.4146 4.39563L47.4146 13.011" stroke="black"/>
<path d="M51.7388 12.3077L46.2446 17.2308" stroke="black"/>
<path d="M14.0664 12.1318L19.5606 17.0549" stroke="black"/>
<path d="M9.5 13.9744L18.6659 22.2381" stroke="black"/>
<path d="M7.04565 16.8792L16.2116 25.1429" stroke="black"/>
<path d="M4.51025 20.0439L13.6762 28.3077" stroke="black"/>
<path d="M2.75513 24.0879L8.60571 29.3626" stroke="black"/>
<path d="M1.58496 28.3077L9.77577 34.989" stroke="black"/>
<path d="M1.19507 32.5275L11.3361 41.4945" stroke="black"/>
<path d="M56.5044 13.9744L47.4999 22.2381" stroke="black"/>
<path d="M58.7593 17.2308L47.4145 27.6044" stroke="black"/>
<path d="M61.2947 20.9231L51.12 30.2418" stroke="black"/>
<path d="M63.0498 24.0879L54.8253 31.6483" stroke="black"/>
<path d="M64.0249 27.9561L52.4851 38.3297" stroke="black"/>
<path d="M65 32L52.4851 43.2527" stroke="black"/>
<ellipse cx="25.8651" cy="0.967033" rx="1.07261" ry="0.967033" fill="black"/>
<ellipse cx="15.139" cy="9.75823" rx="1.07261" ry="0.967033" fill="black"/>
<ellipse cx="50.6324" cy="9.58239" rx="1.07261" ry="0.967033" fill="black"/>
<ellipse cx="52.7777" cy="33.4945" rx="1.07261" ry="0.967033" fill="black"/>
<ellipse cx="57.6532" cy="43.1648" rx="1.07261" ry="0.967033" fill="black"/>
<ellipse cx="55.703" cy="47.2088" rx="1.07261" ry="0.967033" fill="black"/>
<ellipse cx="60.1883" cy="40.5275" rx="1.07261" ry="0.967033" fill="black"/>
<ellipse cx="13.1888" cy="33.4945" rx="1.07261" ry="0.967033" fill="black"/>
<ellipse cx="8.31333" cy="43.1648" rx="1.07261" ry="0.967033" fill="black"/>
<ellipse cx="6.16807" cy="40.5275" rx="1.07261" ry="0.967033" fill="black"/>
<ellipse cx="10.2635" cy="47.2088" rx="1.07261" ry="0.967033" fill="black"/>
</svg>
